<?xml version="1.0" standalone="no"?><!DOCTYPE svg PUBLIC "-//W3C//DTD SVG 1.1//EN" "http://www.w3.org/Graphics/SVG/1.1/DTD/svg11.dtd"><svg t="1651920520260" class="icon" viewBox="0 0 1024 1024" version="1.1" xmlns="http://www.w3.org/2000/svg" p-id="2856" xmlns:xlink="http://www.w3.org/1999/xlink" width="200" height="200"><defs><style type="text/css">@font-face { font-family: feedback-iconfont; src: url("//at.alicdn.com/t/font_1031158_u69w8yhxdu.woff2?t=1630033759944") format("woff2"), url("//at.alicdn.com/t/font_1031158_u69w8yhxdu.woff?t=1630033759944") format("woff"), url("//at.alicdn.com/t/font_1031158_u69w8yhxdu.ttf?t=1630033759944") format("truetype"); }
</style></defs><path d="M586.9 344.6c-19.9 0.4-45.1-8.5-56.2-34.9-30.2-71.8 20.7-137.1 36.3-154.7 29.1 28.7 87.6 97.3 78.9 141-6.5 32.8-34.3 48-59 48.6z" fill="#3AB477" p-id="2857"></path><path d="M645.9 296c8.7-43.6-49.8-112.3-78.9-141-0.3 0.3-0.7 0.7-1 1.1l20.4 188.4h0.5c24.7-0.5 52.5-15.7 59-48.5z" fill="#1F9952" p-id="2858"></path><path d="M671.1 302.5c15.1-76.3-96.2-181.8-101-186.3-3.3-3.1-7.6-3.3-10.5-0.4-1 0.9-23.7 23.3-41.2 59-23.9 48.5-26.5 98.2-7.4 143.6 13.8 33 44.5 53 80 52.2 3.5-0.1 7-0.4 10.6-0.9 3 10.8 8.7 28.5 18 44.5 2.3 4 6.1 5.9 9.5 5 0.9-0.2 1.8-0.7 2.7-1.3 3.8-3.1 4.5-9.7 1.5-14.8-7.6-13.2-12.6-28.4-15.2-37.6 24.4-8.9 46.4-29.4 53-63z m-82.7 37.8c-18.8 0.4-42.6-8-53.1-33-28.5-67.8 19.6-129.5 34.3-146 27.5 27.1 82.7 91.9 74.5 133.1-6.2 31-32.4 45.4-55.7 45.9z" fill="" p-id="2859"></path><path d="M293.4 424.9m-94.3 0a94.3 94.3 0 1 0 188.6 0 94.3 94.3 0 1 0-188.6 0Z" fill="#7055A3" p-id="2860"></path><path d="M480.1 356.3m-94.3 0a94.3 94.3 0 1 0 188.6 0 94.3 94.3 0 1 0-188.6 0Z" fill="#7055A3" p-id="2861"></path><path d="M723.1 492c0 52.1-42.2 94.3-94.3 94.3-52.1 0-94.3-42.2-94.3-94.3 0-52.1 42.2-94.3 94.3-94.3 52.1 0 94.3 42.2 94.3 94.3" fill="#7055A3" p-id="2862"></path><path d="M444 552.1m-94.3 0a94.3 94.3 0 1 0 188.6 0 94.3 94.3 0 1 0-188.6 0Z" fill="#7055A3" p-id="2863"></path><path d="M588.5 675.2m-94.3 0a94.3 94.3 0 1 0 188.6 0 94.3 94.3 0 1 0-188.6 0Z" fill="#7055A3" p-id="2864"></path><path d="M251.2 607.3m-94.3 0a94.3 94.3 0 1 0 188.6 0 94.3 94.3 0 1 0-188.6 0Z" fill="#7055A3" p-id="2865"></path><path d="M399.9 743.1m-94.3 0a94.3 94.3 0 1 0 188.6 0 94.3 94.3 0 1 0-188.6 0Z" fill="#7055A3" p-id="2866"></path><path d="M211.3 890.2c-52.1 0-94.3-42.2-94.3-94.3 0-52.1 42.2-94.3 94.3-94.3s94.3 42.2 94.3 94.3c0 52.1-42.2 94.3-94.3 94.3" fill="#7055A3" p-id="2867"></path><path d="M293.4 539.2c-63 0-114.3-51.3-114.3-114.3s51.3-114.3 114.3-114.3 114.3 51.3 114.3 114.3-51.3 114.3-114.3 114.3z m0-188.6c-41 0-74.3 33.3-74.3 74.3s33.3 74.3 74.3 74.3 74.3-33.3 74.3-74.3-33.4-74.3-74.3-74.3z" fill="" p-id="2868"></path><path d="M480.1 470.6c-63 0-114.3-51.3-114.3-114.3S417.1 242 480.1 242s114.3 51.3 114.3 114.3-51.3 114.3-114.3 114.3z m0-188.6c-41 0-74.3 33.3-74.3 74.3s33.3 74.3 74.3 74.3 74.3-33.3 74.3-74.3S521 282 480.1 282z" fill="" p-id="2869"></path><path d="M628.8 606.3c-63 0-114.3-51.3-114.3-114.3s51.3-114.3 114.3-114.3S743.1 429 743.1 492s-51.2 114.3-114.3 114.3z m0-188.6c-41 0-74.3 33.3-74.3 74.3s33.3 74.3 74.3 74.3 74.3-33.3 74.3-74.3-33.3-74.3-74.3-74.3z" fill="" p-id="2870"></path><path d="M444 666.5c-63 0-114.3-51.3-114.3-114.3S381 437.8 444 437.8s114.3 51.3 114.3 114.3S507 666.5 444 666.5z m0-188.6c-41 0-74.3 33.3-74.3 74.3s33.3 74.3 74.3 74.3 74.3-33.3 74.3-74.3-33.3-74.3-74.3-74.3z" fill="" p-id="2871"></path><path d="M588.5 789.5c-63 0-114.3-51.3-114.3-114.3s51.3-114.3 114.3-114.3 114.3 51.3 114.3 114.3-51.2 114.3-114.3 114.3z m0-188.6c-41 0-74.3 33.3-74.3 74.3s33.3 74.3 74.3 74.3 74.3-33.3 74.3-74.3-33.3-74.3-74.3-74.3zM251.2 721.7c-63 0-114.3-51.3-114.3-114.3S188.2 493 251.2 493s114.3 51.3 114.3 114.3-51.3 114.4-114.3 114.4z m0-188.6c-41 0-74.3 33.3-74.3 74.3s33.3 74.3 74.3 74.3 74.3-33.3 74.3-74.3-33.3-74.3-74.3-74.3z" fill="" p-id="2872"></path><path d="M399.9 857.4c-63 0-114.3-51.3-114.3-114.3s51.3-114.3 114.3-114.3S514.3 680 514.3 743.1 463 857.4 399.9 857.4z m0-188.6c-41 0-74.3 33.3-74.3 74.3s33.3 74.3 74.3 74.3 74.3-33.3 74.3-74.3-33.3-74.3-74.3-74.3z" fill="" p-id="2873"></path><path d="M211.3 910.3C148.3 910.3 97 859 97 795.9s51.3-114.3 114.3-114.3 114.3 51.3 114.3 114.3-51.2 114.4-114.3 114.4z m0-188.6c-41 0-74.3 33.3-74.3 74.3s33.3 74.3 74.3 74.3 74.3-33.3 74.3-74.3-33.3-74.3-74.3-74.3zM805.2 408.7c-14.7 0-30.6-6.5-47.5-19.3l-1-0.8-0.9-0.9c-1.2-1.3-19.4-21.3-29.5-48.8-9.9 3.6-20.8 7.9-32.8 13.1-54.9 23.4-104.5 52-105 52.3-7 4-15.9 1.6-19.9-5.3-4-7-1.6-15.9 5.3-19.9 2.1-1.2 51.4-29.6 107.9-53.7 13.5-5.8 26.2-10.8 38.2-15.1-0.5-6.6-0.2-13.4 1.1-20.2 5.1-27.6 24.4-49.9 57.4-66.3 54.7-27.2 96.8-1.4 141.5 25.8 6.9 4.2 9 13.2 4.8 20-4.2 6.9-13.1 9-20 4.8-50.8-31-76.9-42.7-113.4-24.6-24.3 12.1-38.4 27.4-41.7 45.4-0.4 1.9-0.6 3.8-0.7 5.7 43.6-12.2 73.8-11.5 91.6 2.1 16.8 12.8 21.4 34.7 13.5 64.9-3.7 14.2-14.4 31.7-33.3 38.2-5 1.7-10.2 2.6-15.6 2.6zM776.5 367c10.2 7.5 24.1 15.2 34.8 11.5 8.6-3 13.3-12.7 14.6-18 3.2-12.2 5.3-28.1-2.9-34.4-4.4-3.3-20.4-10.5-69 3.6 7 18.6 19.3 33.6 22.5 37.3z" fill="" p-id="2874"></path><path d="M464.1 312.2m-23.7 0a23.7 23.7 0 1 0 47.4 0 23.7 23.7 0 1 0-47.4 0Z" fill="#FFFFFF" p-id="2875"></path><path d="M268.8 383.6m-23.7 0a23.7 23.7 0 1 0 47.4 0 23.7 23.7 0 1 0-47.4 0Z" fill="#FFFFFF" p-id="2876"></path><path d="M607.9 450.6m-23.7 0a23.7 23.7 0 1 0 47.4 0 23.7 23.7 0 1 0-47.4 0Z" fill="#FFFFFF" p-id="2877"></path><path d="M423.6 509.4m-23.7 0a23.7 23.7 0 1 0 47.4 0 23.7 23.7 0 1 0-47.4 0Z" fill="#FFFFFF" p-id="2878"></path><path d="M229.5 566.2m-23.7 0a23.7 23.7 0 1 0 47.4 0 23.7 23.7 0 1 0-47.4 0Z" fill="#FFFFFF" p-id="2879"></path><path d="M571.4 631.9m-23.7 0a23.7 23.7 0 1 0 47.4 0 23.7 23.7 0 1 0-47.4 0Z" fill="#FFFFFF" p-id="2880"></path><path d="M382.3 698.9m-23.7 0a23.7 23.7 0 1 0 47.4 0 23.7 23.7 0 1 0-47.4 0Z" fill="#FFFFFF" p-id="2881"></path><path d="M191.8 752.5m-23.7 0a23.7 23.7 0 1 0 47.4 0 23.7 23.7 0 1 0-47.4 0Z" fill="#FFFFFF" p-id="2882"></path></svg>